<?xml version="1.0" encoding="UTF-8" standalone="no"?>
<!DOCTYPE svg PUBLIC "-//W3C//DTD SVG 1.1//EN" "http://www.w3.org/Graphics/SVG/1.1/DTD/svg11.dtd">
<svg width="512px" height="512px" version="1.1" xmlns="http://www.w3.org/2000/svg" xmlns:xlink="http://www.w3.org/1999/xlink" xml:space="preserve" xmlns:serif="http://www.serif.com/" style="fill-rule:evenodd;clip-rule:evenodd;stroke-linejoin:round;stroke-miterlimit:2;">
    <g transform="matrix(1.25839,0,0,1.25839,-50.7879,-90.4794)">
        <g transform="matrix(4.16667,0,0,4.16667,-329.192,-891.499)">
            <clipPath id="_clip1">
                <rect x="126.18" y="268.433" width="25.611" height="29.567"/>
            </clipPath>
            <g clip-path="url(#_clip1)">
                <path d="M151.791,298L149.992,298L149.992,287.9L141.992,287.9L141.992,270.233L112.891,270.233L112.891,268.433L143.791,268.433L143.791,286.1L151.791,286.1L151.791,298Z" style="fill:rgb(1,105,56);fill-rule:nonzero;"/>
            </g>
        </g>
        <g transform="matrix(4.16667,0,0,4.16667,-331.488,-892.629)">
            <rect x="130.118" y="272.372" width="1.317" height="1.66" style="fill:rgb(1,105,56);fill-rule:nonzero;"/>
        </g>
        <g transform="matrix(4.16667,0,0,4.16667,-331.488,-892.629)">
            <rect x="130.118" y="275.384" width="1.317" height="1.66" style="fill:rgb(1,105,56);fill-rule:nonzero;"/>
        </g>
        <g transform="matrix(4.16667,0,0,4.16667,-331.488,-892.629)">
            <rect x="130.118" y="278.396" width="1.317" height="1.66" style="fill:rgb(1,105,56);fill-rule:nonzero;"/>
        </g>
        <g transform="matrix(4.16667,0,0,4.16667,-331.488,-892.629)">
            <rect x="132.892" y="272.372" width="1.317" height="1.66" style="fill:rgb(1,105,56);fill-rule:nonzero;"/>
        </g>
        <g transform="matrix(4.16667,0,0,4.16667,-331.488,-892.629)">
            <rect x="132.892" y="275.384" width="1.317" height="1.66" style="fill:rgb(1,105,56);fill-rule:nonzero;"/>
        </g>
        <g transform="matrix(4.16667,0,0,4.16667,-331.488,-892.629)">
            <rect x="132.892" y="278.396" width="1.317" height="1.66" style="fill:rgb(1,105,56);fill-rule:nonzero;"/>
        </g>
        <g transform="matrix(4.16667,0,0,4.16667,-331.488,-892.629)">
            <rect x="135.665" y="272.372" width="1.318" height="1.66" style="fill:rgb(1,105,56);fill-rule:nonzero;"/>
        </g>
        <g transform="matrix(4.16667,0,0,4.16667,-331.488,-892.629)">
            <rect x="135.665" y="275.384" width="1.318" height="1.66" style="fill:rgb(1,105,56);fill-rule:nonzero;"/>
        </g>
        <g transform="matrix(4.16667,0,0,4.16667,-331.488,-892.629)">
            <rect x="135.665" y="278.396" width="1.318" height="1.66" style="fill:rgb(1,105,56);fill-rule:nonzero;"/>
        </g>
        <g transform="matrix(4.16667,0,0,4.16667,-331.488,-892.629)">
            <rect x="138.439" y="272.372" width="1.317" height="1.66" style="fill:rgb(1,105,56);fill-rule:nonzero;"/>
        </g>
        <g transform="matrix(4.16667,0,0,4.16667,-331.488,-892.629)">
            <rect x="138.439" y="275.384" width="1.317" height="1.66" style="fill:rgb(1,105,56);fill-rule:nonzero;"/>
        </g>
        <g transform="matrix(4.16667,0,0,4.16667,-331.488,-892.629)">
            <rect x="138.439" y="278.396" width="1.317" height="1.66" style="fill:rgb(1,105,56);fill-rule:nonzero;"/>
        </g>
        <g transform="matrix(4.16667,0,0,4.16667,-331.488,-892.629)">
            <rect x="143.467" y="290.17" width="1.318" height="1.66" style="fill:rgb(1,105,56);fill-rule:nonzero;"/>
        </g>
        <g transform="matrix(4.16667,0,0,4.16667,-331.488,-892.629)">
            <rect x="143.467" y="293.182" width="1.318" height="1.66" style="fill:rgb(1,105,56);fill-rule:nonzero;"/>
        </g>
        <g transform="matrix(4.16667,0,0,4.16667,-331.488,-892.629)">
            <rect x="146.241" y="290.17" width="1.317" height="1.66" style="fill:rgb(1,105,56);fill-rule:nonzero;"/>
        </g>
        <g transform="matrix(4.16667,0,0,4.16667,-331.488,-892.629)">
            <rect x="146.241" y="293.182" width="1.317" height="1.66" style="fill:rgb(1,105,56);fill-rule:nonzero;"/>
        </g>
        <rect x="196.556" y="232.55" width="7.332" height="117.618" style="fill:rgb(1,105,56);"/>
        <g transform="matrix(4.16667,0,0,4.16667,-331.488,-829.879)">
            <rect x="130.118" y="272.372" width="1.317" height="1.66" style="fill:rgb(1,105,56);fill-rule:nonzero;"/>
        </g>
        <g transform="matrix(4.16667,0,0,4.16667,-331.488,-829.879)">
            <rect x="130.118" y="275.384" width="1.317" height="1.66" style="fill:rgb(1,105,56);fill-rule:nonzero;"/>
        </g>
        <g transform="matrix(4.16667,0,0,4.16667,-331.488,-829.879)">
            <rect x="130.118" y="278.396" width="1.317" height="1.66" style="fill:rgb(1,105,56);fill-rule:nonzero;"/>
        </g>
        <g transform="matrix(4.16667,0,0,4.16667,-331.488,-829.879)">
            <rect x="132.892" y="272.372" width="1.317" height="1.66" style="fill:rgb(1,105,56);fill-rule:nonzero;"/>
        </g>
        <g transform="matrix(4.16667,0,0,4.16667,-331.488,-829.879)">
            <rect x="132.892" y="275.384" width="1.317" height="1.66" style="fill:rgb(1,105,56);fill-rule:nonzero;"/>
        </g>
        <g transform="matrix(4.16667,0,0,4.16667,-331.488,-829.879)">
            <rect x="132.892" y="278.396" width="1.317" height="1.66" style="fill:rgb(1,105,56);fill-rule:nonzero;"/>
        </g>
        <g transform="matrix(4.16667,0,0,4.16667,-331.488,-829.879)">
            <rect x="135.665" y="272.372" width="1.318" height="1.66" style="fill:rgb(1,105,56);fill-rule:nonzero;"/>
        </g>
        <g transform="matrix(4.16667,0,0,4.16667,-331.488,-829.879)">
            <rect x="135.665" y="275.384" width="1.318" height="1.66" style="fill:rgb(1,105,56);fill-rule:nonzero;"/>
        </g>
        <g transform="matrix(4.16667,0,0,4.16667,-331.488,-829.879)">
            <rect x="135.665" y="278.396" width="1.318" height="1.66" style="fill:rgb(1,105,56);fill-rule:nonzero;"/>
        </g>
        <g transform="matrix(4.16667,0,0,4.16667,-331.488,-829.879)">
            <rect x="138.439" y="272.372" width="1.317" height="1.66" style="fill:rgb(1,105,56);fill-rule:nonzero;"/>
        </g>
        <g transform="matrix(4.16667,0,0,4.16667,-331.488,-829.879)">
            <rect x="138.439" y="275.384" width="1.317" height="1.66" style="fill:rgb(1,105,56);fill-rule:nonzero;"/>
        </g>
        <g transform="matrix(4.16667,0,0,4.16667,-331.488,-829.879)">
            <rect x="138.439" y="278.396" width="1.317" height="1.66" style="fill:rgb(1,105,56);fill-rule:nonzero;"/>
        </g>
    </g>
</svg>
