<?xml version="1.0" encoding="UTF-8" standalone="no"?>
<!DOCTYPE svg PUBLIC "-//W3C//DTD SVG 1.1//EN" "http://www.w3.org/Graphics/SVG/1.1/DTD/svg11.dtd">
<svg width="100%" height="100%" viewBox="0 0 512 512" version="1.1" xmlns="http://www.w3.org/2000/svg" xmlns:xlink="http://www.w3.org/1999/xlink" xml:space="preserve" xmlns:serif="http://www.serif.com/" style="fill-rule:evenodd;clip-rule:evenodd;stroke-linejoin:round;stroke-miterlimit:2;">
    <g>
        <path d="M428.976,357.693C438.625,357.693 446.476,349.842 446.476,340.193L446.476,290.968C446.476,281.319 438.625,273.468 428.976,273.468L358.705,273.468C349.056,273.468 341.205,281.319 341.205,290.968L341.205,340.193C341.205,349.842 349.056,357.693 358.705,357.693L428.976,357.693ZM356.205,340.193L356.205,290.968C356.205,289.59 357.327,288.468 358.705,288.468L428.976,288.468C430.354,288.468 431.476,289.59 431.476,290.968L431.476,340.193C431.476,341.571 430.354,342.693 428.976,342.693L358.705,342.693C357.326,342.693 356.205,341.571 356.205,340.193ZM350.146,30L161.854,30C154.961,30 149.354,35.607 149.354,42.5L149.354,62.5C149.354,69.393 154.961,75 161.854,75L350.147,75C357.04,75 362.647,69.393 362.647,62.5L362.647,42.5C362.646,35.607 357.039,30 350.146,30ZM347.647,60L164.354,60L164.354,45L347.647,45L347.647,60ZM153.272,357.693C162.921,357.693 170.772,349.842 170.772,340.193L170.772,290.968C170.772,281.319 162.921,273.468 153.272,273.468L83,273.468C73.351,273.468 65.5,281.319 65.5,290.968L65.5,340.193C65.5,349.842 73.351,357.693 83,357.693L153.272,357.693ZM80.5,340.193L80.5,290.968C80.5,289.59 81.622,288.468 83,288.468L153.271,288.468C154.649,288.468 155.771,289.59 155.771,290.968L155.771,340.193C155.771,341.571 154.649,342.693 153.271,342.693L83,342.693C81.622,342.693 80.5,341.571 80.5,340.193ZM512,184.268L512,157.932C511.881,157.123 512.218,157.201 511.218,154.597L482,95.741L482,27.5C482,12.336 469.664,-0 454.5,-0L57.5,-0C42.336,-0 30,12.336 30,27.5L30,95.741L0.782,154.597C0.405,155.502 0.029,156.338 -0,157.952L-0,184.271C-0,205.422 15.355,223.042 35.5,226.603L35.5,308.528C35.5,312.67 38.858,316.028 43,316.028C47.142,316.028 50.5,312.67 50.5,308.528L50.5,226.602C62.09,224.553 72.095,217.857 78.501,208.502C86.254,219.825 99.273,227.272 114.001,227.272C128.729,227.272 141.748,219.825 149.501,208.503C157.254,219.826 170.273,227.272 185.001,227.272C199.669,227.272 212.64,219.885 220.404,208.64C228.171,219.897 241.152,227.293 255.833,227.293C270.572,227.293 283.6,219.84 291.356,208.507C299.113,219.839 312.14,227.293 326.88,227.293C341.62,227.293 354.647,219.84 362.404,208.507C370.161,219.839 383.188,227.293 397.927,227.293C412.666,227.293 425.694,219.84 433.451,208.507C439.861,217.873 449.877,224.575 461.478,226.624L461.478,466.938L326.205,466.938L326.205,290.968C326.205,281.319 318.354,273.468 308.705,273.468L203.295,273.468C193.646,273.468 185.795,281.319 185.795,290.968L185.795,466.937L50.5,466.937L50.5,343.527C50.5,339.385 47.142,336.027 43,336.027C38.858,336.027 35.5,339.385 35.5,343.527L35.5,466.937L17.5,466.937C7.851,466.937 -0,474.797 -0,484.458L-0,494.479C-0,504.14 7.851,512 17.5,512L494.5,512C504.149,512 512,504.14 512,494.479L512,484.458C512,474.797 504.149,466.937 494.5,466.937L476.48,466.937L476.48,226.623C496.637,223.061 512,205.431 512,184.268ZM71.001,184.271C71.001,199.706 58.447,212.264 43.013,212.271C43.009,212.271 43.004,212.27 43,212.27C42.996,212.27 42.992,212.271 42.987,212.271C27.554,212.263 15,199.706 15,184.271L15,165.452L71.001,165.452L71.001,184.271ZM142.001,184.271C142.001,199.71 129.44,212.271 114.001,212.271C98.562,212.271 86.001,199.71 86.001,184.271L86.001,165.452L142.001,165.452L142.001,184.271ZM185.002,212.271C169.563,212.271 157.002,199.71 157.002,184.271L157.002,165.452L212.811,165.452L212.811,184.267C212.811,185.1 212.841,185.926 212.888,186.747C211.628,201.031 199.606,212.271 185.002,212.271ZM283.857,184.268C283.857,199.721 271.286,212.292 255.834,212.292C241.218,212.292 229.186,201.043 227.926,186.749C227.973,185.929 228.002,185.104 228.002,184.272L228.002,165.433L283.857,165.433L283.857,184.268ZM354.905,184.268C354.905,199.721 342.334,212.292 326.881,212.292C311.428,212.292 298.857,199.721 298.857,184.268L298.857,165.432L354.905,165.432L354.905,184.268ZM425.953,184.268C425.953,199.721 413.382,212.292 397.929,212.292C382.477,212.292 369.906,199.721 369.906,184.268L369.906,165.432L425.953,165.432L425.953,184.268ZM19.597,150.432L42.15,105L365.463,105C369.605,105 372.963,101.642 372.963,97.5C372.963,93.358 369.605,90 365.463,90L45,90L45,27.5C45,20.607 50.607,15 57.5,15L454.5,15C461.393,15 467,20.607 467,27.5L467,90L400.463,90C396.321,90 392.963,93.358 392.963,97.5C392.963,101.642 396.321,105 400.463,105L469.849,105L492.402,150.432L19.597,150.432ZM255.874,292.9L264.472,303.467L247.392,303.467L255.874,292.9ZM272.744,318.468L272.744,338.08L239.257,338.08L239.257,318.468L272.744,318.468ZM200.795,290.968C200.795,289.59 201.917,288.468 203.295,288.468L240.197,288.468L225.906,306.274C225.027,307.431 224.247,308.994 224.255,310.968L224.255,340.58C224.255,347.473 229.862,353.08 236.755,353.08L275.242,353.08C282.135,353.08 287.742,347.473 287.742,340.58L287.742,310.968C287.699,309.483 287.322,307.749 286.026,306.194L271.603,288.468L308.702,288.468C310.08,288.468 311.202,289.59 311.202,290.968L311.202,466.937L200.795,466.937L200.795,290.968ZM494.5,481.937C495.878,481.937 497,483.068 497,484.458L497,494.479C497,495.869 495.878,497 494.5,497L17.5,497C16.122,497 15,495.869 15,494.479L15,484.458C15,483.068 16.122,481.937 17.5,481.937L494.5,481.937ZM468.998,212.291C468.992,212.291 468.986,212.29 468.98,212.29C468.973,212.29 468.966,212.291 468.959,212.291C453.515,212.282 440.952,199.715 440.952,184.268L440.952,165.432L497,165.432L497,184.268C497,199.713 484.441,212.279 468.998,212.291ZM223.295,374.941C219.153,374.941 215.795,378.299 215.795,382.441L215.795,402.964C215.795,407.106 219.153,410.464 223.295,410.464C227.437,410.464 230.795,407.106 230.795,402.964L230.795,382.441C230.795,378.299 227.437,374.941 223.295,374.941Z" style="fill:rgb(1,105,56);fill-rule:nonzero;"/>
    </g>
</svg>
